<?xml version="1.0" encoding="utf-8"?>
<!-- Generator: Adobe Illustrator 27.3.1, SVG Export Plug-In . SVG Version: 6.00 Build 0)  -->
<svg version="1.1" id="Layer_1" xmlns="http://www.w3.org/2000/svg" xmlns:xlink="http://www.w3.org/1999/xlink" x="0px" y="0px"
	 viewBox="0 0 98.2 35.1" style="enable-background:new 0 0 98.2 35.1;" xml:space="preserve">
<style type="text/css">
	.st0{fill:url(#SVGID_1_);}
	.st1{fill:url(#SVGID_00000101815822308823410450000013942060426456273568_);}
	.st2{fill:url(#SVGID_00000140726304458686289350000006808840901505266312_);}
	.st3{fill:url(#SVGID_00000049216755811478253080000010163922075204120974_);}
	.st4{fill:url(#SVGID_00000028309276803112566020000018318831474442181024_);}
	.st5{fill:url(#SVGID_00000085959678446022016770000013813957345800678584_);}
	.st6{fill:#13773D;}
	.st7{fill:#221F1F;}
	.st8{fill:url(#SVGID_00000057129962089020047460000015686431914260281514_);}
</style>
<g>
	<g>
		<g>
			<linearGradient id="SVGID_1_" gradientUnits="userSpaceOnUse" x1="2.1139" y1="35.1248" x2="2.1139" y2="25.5178">
				<stop  offset="0" style="stop-color:#00A963"/>
				<stop  offset="0.9929" style="stop-color:#55B74D"/>
			</linearGradient>
			<polygon class="st0" points="0,28.8 0,35.1 4.2,35.1 4.2,25.5 2.1,25.5 			"/>
		</g>
		<g>
			
				<linearGradient id="SVGID_00000082332010878111444470000007448208103415805358_" gradientUnits="userSpaceOnUse" x1="15.094" y1="35.1248" x2="15.094" y2="2.2765">
				<stop  offset="0" style="stop-color:#00A963"/>
				<stop  offset="0.9929" style="stop-color:#55B74D"/>
			</linearGradient>
			<polygon style="fill:url(#SVGID_00000082332010878111444470000007448208103415805358_);" points="18.8,5.9 19.3,5.7 19.3,2.7 
				18.8,2.9 14.2,2.3 14.2,8.2 10.9,16.2 10.9,35.1 18,35.1 18,16.2 14.6,8.2 14.6,5.5 			"/>
		</g>
		<g>
			
				<linearGradient id="SVGID_00000040546916701816863810000011680584193545133990_" gradientUnits="userSpaceOnUse" x1="7.5552" y1="35.1248" x2="7.5552" y2="18.3963">
				<stop  offset="0" style="stop-color:#00A963"/>
				<stop  offset="0.9929" style="stop-color:#55B74D"/>
			</linearGradient>
			<polygon style="fill:url(#SVGID_00000040546916701816863810000011680584193545133990_);" points="5.4,23 5.4,35.1 9.7,35.1 
				9.7,18.4 7.6,18.4 			"/>
		</g>
	</g>
	<g>
		<g>
			
				<linearGradient id="SVGID_00000093154834827753598420000005158748977833542036_" gradientUnits="userSpaceOnUse" x1="7.5552" y1="35.1248" x2="7.5552" y2="29.601">
				<stop  offset="0" style="stop-color:#006334"/>
				<stop  offset="0.9929" style="stop-color:#00A963"/>
			</linearGradient>
			<path style="fill:url(#SVGID_00000093154834827753598420000005158748977833542036_);" d="M9.7,29.6c-1.3,0.7-2.7,1.2-4.2,1.7v3.8
				h4.2V29.6z"/>
		</g>
		<g>
			
				<linearGradient id="SVGID_00000134240275526939570680000000739222915886404519_" gradientUnits="userSpaceOnUse" x1="2.1139" y1="35.1248" x2="2.1139" y2="31.6077">
				<stop  offset="0" style="stop-color:#006334"/>
				<stop  offset="0.9929" style="stop-color:#00A963"/>
			</linearGradient>
			<path style="fill:url(#SVGID_00000134240275526939570680000000739222915886404519_);" d="M4.2,31.6c-1.3,0.3-2.7,0.5-4.2,0.6v2.9
				h4.2V31.6z"/>
		</g>
		<g>
			
				<linearGradient id="SVGID_00000087394904916200715790000003081995532857660568_" gradientUnits="userSpaceOnUse" x1="14.4239" y1="35.1248" x2="14.4239" y2="21.1969">
				<stop  offset="0" style="stop-color:#006334"/>
				<stop  offset="0.9929" style="stop-color:#00A963"/>
			</linearGradient>
			<path style="fill:url(#SVGID_00000087394904916200715790000003081995532857660568_);" d="M18,21.2c-1.3,2.5-3.5,5.5-7.1,7.7v6.2
				H18V21.2z"/>
		</g>
	</g>
	<path class="st6" d="M16.2,16.9c0,1-0.8,1.8-1.8,1.8c-1,0-1.8-0.8-1.8-1.8c0-1,0.8-1.8,1.8-1.8C15.4,15.2,16.2,15.9,16.2,16.9z"/>
	<path class="st7" d="M62.4,18.4h1.7v7.5h-1.7V18.4z"/>
	<path class="st7" d="M65.2,20.5h1.4v0.8h0c0.4-0.6,1-0.9,1.7-0.9c1.6,0,2,0.9,2,2.2v3.4h-1.5v-3.1c0-0.9-0.3-1.3-1-1.3
		c-0.8,0-1.2,0.5-1.2,1.6v2.9h-1.5V20.5z"/>
	<path class="st7" d="M74.2,25.9h-1.7l-1.9-5.5h1.6l1.1,3.7h0l1.1-3.7h1.5L74.2,25.9z"/>
	<path class="st7" d="M77.7,23.6c0,1,0.5,1.4,1.3,1.4c0.6,0,1.1-0.4,1.2-0.7h1.3c-0.4,1.3-1.3,1.8-2.6,1.8c-1.7,0-2.8-1.2-2.8-2.9
		c0-1.6,1.1-2.9,2.8-2.9c1.9,0,2.8,1.6,2.6,3.2H77.7z M80.2,22.6c-0.1-0.8-0.5-1.2-1.2-1.2c-0.9,0-1.2,0.7-1.2,1.2H80.2z"/>
	<path class="st7" d="M83.5,24.1c0,0.7,0.6,0.9,1.1,0.9c0.4,0,1-0.2,1-0.7c0-0.5-0.6-0.6-1.7-0.8c-0.9-0.2-1.7-0.5-1.7-1.5
		c0-1.4,1.2-1.8,2.4-1.8c1.2,0,2.3,0.4,2.4,1.7h-1.4c0-0.6-0.5-0.7-1-0.7c-0.3,0-0.8,0.1-0.8,0.5c0,0.5,0.8,0.6,1.7,0.8
		c0.9,0.2,1.7,0.5,1.7,1.5c0,1.4-1.2,1.9-2.5,1.9c-1.3,0-2.5-0.5-2.6-1.9H83.5z"/>
	<path class="st7" d="M89.7,20.5h1.1v1h-1.1v2.7c0,0.5,0.1,0.6,0.6,0.6c0.2,0,0.3,0,0.5,0v1.2c-0.3,0-0.6,0.1-0.9,0.1
		c-0.9,0-1.7-0.2-1.7-1.3v-3.2h-0.9v-1h0.9v-1.6h1.5V20.5z"/>
	<path class="st7" d="M92.8,19.6h-1.5v-1.2h1.5V19.6z M91.3,20.5h1.5v5.5h-1.5V20.5z"/>
	<path class="st7" d="M93.8,20.5h1.4v1h0c0.3-0.7,1-1.2,1.7-1.2c0.1,0,0.2,0,0.3,0.1v1.4c-0.1,0-0.4-0.1-0.5-0.1
		c-1.1,0-1.5,0.8-1.5,1.8v2.5h-1.5V20.5z"/>
	<path class="st7" d="M65.8,27.4c2.3,0,3.7,1.7,3.7,4c0,2.2-1.4,3.9-3.7,3.9c-2.3,0-3.7-1.7-3.7-3.9C62.1,29.2,63.5,27.4,65.8,27.4z
		 M65.8,33.9c1.5,0,2-1.3,2-2.5c0-1.3-0.6-2.6-2-2.6c-1.5,0-2,1.3-2,2.6C63.8,32.7,64.3,33.9,65.8,33.9z"/>
	<path class="st7" d="M72.2,29.7h1.1v1h-1.1v2.7c0,0.5,0.1,0.6,0.6,0.6c0.2,0,0.3,0,0.5,0v1.2c-0.3,0-0.6,0.1-0.9,0.1
		c-0.9,0-1.7-0.2-1.7-1.3v-3.2h-0.9v-1h0.9V28h1.5V29.7z"/>
	<path class="st7" d="M75.7,29.7h1.1v1h-1.1v2.7c0,0.5,0.1,0.6,0.6,0.6c0.2,0,0.3,0,0.5,0v1.2c-0.3,0-0.6,0.1-0.9,0.1
		c-0.9,0-1.7-0.2-1.7-1.3v-3.2h-0.9v-1h0.9V28h1.5V29.7z"/>
	<path class="st7" d="M77.2,31.4c0.1-1.4,1.3-1.8,2.6-1.8c1.1,0,2.4,0.2,2.4,1.5v2.8c0,0.5,0.1,1,0.2,1.2h-1.5
		c-0.1-0.2-0.1-0.3-0.1-0.5c-0.5,0.5-1.2,0.7-1.8,0.7c-1,0-1.9-0.5-1.9-1.6c0-1.2,0.9-1.5,1.9-1.7c0.9-0.1,1.8-0.1,1.8-0.7
		c0-0.6-0.4-0.7-1-0.7c-0.6,0-0.9,0.2-1,0.8H77.2z M80.7,32.5c-0.3,0.2-0.8,0.2-1.2,0.3c-0.5,0.1-0.9,0.3-0.9,0.8
		c0,0.6,0.4,0.7,0.9,0.7c1.2,0,1.2-0.9,1.2-1.3V32.5z"/>
	<path class="st7" d="M89.3,35.1h-1.5l-1-3.7h0l-0.9,3.7h-1.6l-1.7-5.5h1.6l1,3.7h0l0.9-3.7h1.5l0.9,3.7h0l1-3.7h1.5L89.3,35.1z"/>
	<path class="st7" d="M91.4,31.4c0.1-1.4,1.3-1.8,2.6-1.8c1.1,0,2.4,0.2,2.4,1.5v2.8c0,0.5,0.1,1,0.2,1.2H95
		c-0.1-0.2-0.1-0.3-0.1-0.5c-0.5,0.5-1.2,0.7-1.8,0.7c-1,0-1.9-0.5-1.9-1.6c0-1.2,0.9-1.5,1.9-1.7c0.9-0.1,1.8-0.1,1.8-0.7
		c0-0.6-0.4-0.7-1-0.7c-0.6,0-0.9,0.2-1,0.8H91.4z M94.9,32.5c-0.3,0.2-0.8,0.2-1.2,0.3c-0.5,0.1-0.9,0.3-0.9,0.8
		c0,0.6,0.4,0.7,0.9,0.7c1.2,0,1.2-0.9,1.2-1.3V32.5z"/>
	<path class="st7" d="M21.3,18.4h1.7v7.5h-1.7V18.4z"/>
	<path class="st7" d="M24.1,20.5h1.4v0.8h0c0.4-0.6,1-0.9,1.7-0.9c1.6,0,2,0.9,2,2.2v3.4h-1.5v-3.1c0-0.9-0.3-1.3-1-1.3
		c-0.8,0-1.2,0.5-1.2,1.6v2.9h-1.5V20.5z"/>
	<path class="st7" d="M33.3,25.9h-1.7l-1.9-5.5h1.6l1.1,3.7h0l1.1-3.7h1.5L33.3,25.9z"/>
	<path class="st7" d="M36.9,23.6c0,1,0.5,1.4,1.3,1.4c0.6,0,1.1-0.4,1.2-0.7h1.3c-0.4,1.3-1.3,1.8-2.6,1.8c-1.7,0-2.8-1.2-2.8-2.9
		c0-1.6,1.1-2.9,2.8-2.9c1.9,0,2.8,1.6,2.6,3.2H36.9z M39.3,22.6c-0.1-0.8-0.5-1.2-1.2-1.2c-0.9,0-1.2,0.7-1.2,1.2H39.3z"/>
	<path class="st7" d="M42.8,24.1c0,0.7,0.6,0.9,1.1,0.9c0.4,0,1-0.2,1-0.7c0-0.5-0.6-0.6-1.7-0.8c-0.9-0.2-1.7-0.5-1.7-1.5
		c0-1.4,1.2-1.8,2.4-1.8c1.2,0,2.3,0.4,2.4,1.7h-1.4c0-0.6-0.5-0.7-1-0.7c-0.3,0-0.8,0.1-0.8,0.5c0,0.5,0.8,0.6,1.7,0.8
		c0.9,0.2,1.7,0.5,1.7,1.5c0,1.4-1.2,1.9-2.5,1.9c-1.3,0-2.5-0.5-2.6-1.9H42.8z"/>
	<path class="st7" d="M49,20.5h1.1v1H49v2.7c0,0.5,0.1,0.6,0.6,0.6c0.2,0,0.3,0,0.5,0v1.2c-0.3,0-0.6,0.1-0.9,0.1
		c-0.9,0-1.7-0.2-1.7-1.3v-3.2h-0.9v-1h0.9v-1.6H49V20.5z"/>
	<path class="st7" d="M24.7,27.4c2.3,0,3.7,1.7,3.7,4c0,2.2-1.4,3.9-3.7,3.9c-2.3,0-3.7-1.7-3.7-3.9C21,29.2,22.4,27.4,24.7,27.4z
		 M24.7,33.9c1.5,0,2-1.3,2-2.5c0-1.3-0.6-2.6-2-2.6c-1.5,0-2,1.3-2,2.6C22.7,32.7,23.2,33.9,24.7,33.9z"/>
	<path class="st7" d="M31.1,29.7h1.1v1h-1.1v2.7c0,0.5,0.1,0.6,0.6,0.6c0.2,0,0.3,0,0.5,0v1.2c-0.3,0-0.6,0.1-0.9,0.1
		c-0.9,0-1.7-0.2-1.7-1.3v-3.2h-0.9v-1h0.9V28h1.5V29.7z"/>
	<path class="st7" d="M34.6,29.7h1.1v1h-1.1v2.7c0,0.5,0.1,0.6,0.6,0.6c0.2,0,0.3,0,0.5,0v1.2c-0.3,0-0.6,0.1-0.9,0.1
		c-0.9,0-1.7-0.2-1.7-1.3v-3.2h-0.9v-1h0.9V28h1.5V29.7z"/>
	<path class="st7" d="M36.1,31.4c0.1-1.4,1.3-1.8,2.6-1.8c1.1,0,2.4,0.2,2.4,1.5v2.8c0,0.5,0.1,1,0.2,1.2h-1.5
		c-0.1-0.2-0.1-0.3-0.1-0.5c-0.5,0.5-1.2,0.7-1.8,0.7c-1,0-1.9-0.5-1.9-1.6c0-1.2,0.9-1.5,1.9-1.7c0.9-0.1,1.8-0.1,1.8-0.7
		c0-0.6-0.4-0.7-1-0.7c-0.6,0-0.9,0.2-1,0.8H36.1z M39.6,32.5c-0.3,0.2-0.8,0.2-1.2,0.3c-0.5,0.1-0.9,0.3-0.9,0.8
		c0,0.6,0.4,0.7,0.9,0.7c1.2,0,1.2-0.9,1.2-1.3V32.5z"/>
	<path class="st7" d="M48.2,35.1h-1.5l-1-3.7h0l-0.9,3.7h-1.5l-1.7-5.5h1.6l1,3.7h0l0.9-3.7h1.5l0.9,3.7h0l1-3.7H50L48.2,35.1z"/>
	<path class="st7" d="M50.3,31.4c0.1-1.4,1.3-1.8,2.6-1.8c1.1,0,2.4,0.2,2.4,1.5v2.8c0,0.5,0.1,1,0.2,1.2h-1.5
		c-0.1-0.2-0.1-0.3-0.1-0.5c-0.5,0.5-1.2,0.7-1.8,0.7c-1,0-1.9-0.5-1.9-1.6c0-1.2,0.9-1.5,1.9-1.7c0.9-0.1,1.8-0.1,1.8-0.7
		c0-0.6-0.4-0.7-1-0.7c-0.6,0-0.9,0.2-1,0.8H50.3z M53.8,32.5c-0.3,0.2-0.8,0.2-1.2,0.3c-0.5,0.1-0.9,0.3-0.9,0.8
		c0,0.6,0.4,0.7,0.9,0.7c1.2,0,1.2-0.9,1.2-1.3V32.5z"/>
	
		<linearGradient id="SVGID_00000177473652165972970350000016029215583955171259_" gradientUnits="userSpaceOnUse" x1="58.8559" y1="35.1286" x2="58.8559" y2="19.8032">
		<stop  offset="0" style="stop-color:#00A963"/>
		<stop  offset="0.9929" style="stop-color:#55B74D"/>
	</linearGradient>
	
		<rect x="58.6" y="19.8" style="fill:url(#SVGID_00000177473652165972970350000016029215583955171259_);" width="0.5" height="15.3"/>
</g>
</svg>
